<svg width="72" height="72" viewBox="0 0 72 72" fill="none" xmlns="http://www.w3.org/2000/svg">
<rect width="72" height="72" rx="12" fill="#1D1D1D"/>
<mask id="mask0_682_2228" style="mask-type:alpha" maskUnits="userSpaceOnUse" x="20" y="20" width="32" height="32">
<rect x="20" y="20" width="32" height="32" fill="#D9D9D9"/>
</mask>
<g mask="url(#mask0_682_2228)">
<path d="M24.4103 47.3333C23.7368 47.3333 23.1667 47.1 22.7 46.6333C22.2333 46.1667 22 45.5966 22 44.923V29.7437C22 29.0701 22.2333 28.5 22.7 28.0333C23.1667 27.5667 23.7368 27.3333 24.4103 27.3333H28.482L30.2257 25.4437C30.4461 25.2046 30.7118 25.0153 31.0227 24.876C31.3333 24.7364 31.6591 24.6667 32 24.6667H37.4103C37.6937 24.6667 37.9311 24.7626 38.1227 24.9543C38.3144 25.1461 38.4103 25.3837 38.4103 25.667C38.4103 25.9506 38.3144 26.188 38.1227 26.3793C37.9311 26.5709 37.6937 26.6667 37.4103 26.6667H31.8207L29.3743 29.3333H24.4103C24.2906 29.3333 24.1922 29.3718 24.1153 29.4487C24.0384 29.5256 24 29.6239 24 29.7437V44.923C24 45.0428 24.0384 45.1411 24.1153 45.218C24.1922 45.2949 24.2906 45.3333 24.4103 45.3333H44.923C45.0428 45.3333 45.1411 45.2949 45.218 45.218C45.2949 45.1411 45.3333 45.0428 45.3333 44.923V34.5897C45.3333 34.3063 45.4292 34.0689 45.621 33.8773C45.8128 33.6856 46.0503 33.5897 46.3337 33.5897C46.6172 33.5897 46.8547 33.6856 47.046 33.8773C47.2376 34.0689 47.3333 34.3063 47.3333 34.5897V44.923C47.3333 45.5966 47.1 46.1667 46.6333 46.6333C46.1667 47.1 45.5966 47.3333 44.923 47.3333H24.4103ZM45.3333 26.6667H43.6667C43.3833 26.6667 43.1458 26.5708 42.954 26.379C42.7624 26.1872 42.6667 25.9497 42.6667 25.6663C42.6667 25.3828 42.7624 25.1453 42.954 24.954C43.1458 24.7624 43.3833 24.6667 43.6667 24.6667H45.3333V23C45.3333 22.7167 45.4292 22.4792 45.621 22.2877C45.8128 22.0959 46.0503 22 46.3337 22C46.6172 22 46.8547 22.0959 47.046 22.2877C47.2376 22.4792 47.3333 22.7167 47.3333 23V24.6667H49C49.2833 24.6667 49.5208 24.7626 49.7123 24.9543C49.9041 25.1461 50 25.3837 50 25.667C50 25.9506 49.9041 26.188 49.7123 26.3793C49.5208 26.5709 49.2833 26.6667 49 26.6667H47.3333V28.3333C47.3333 28.6167 47.2374 28.8542 47.0457 29.046C46.8539 29.2376 46.6163 29.3333 46.333 29.3333C46.0494 29.3333 45.812 29.2376 45.6207 29.046C45.4291 28.8542 45.3333 28.6167 45.3333 28.3333V26.6667ZM34.6667 42.8203C36.1967 42.8203 37.4937 42.2883 38.5577 41.2243C39.6217 40.1603 40.1537 38.8633 40.1537 37.3333C40.1537 35.8033 39.6217 34.5063 38.5577 33.4423C37.4937 32.3783 36.1967 31.8463 34.6667 31.8463C33.1367 31.8463 31.8397 32.3783 30.7757 33.4423C29.7117 34.5063 29.1797 35.8033 29.1797 37.3333C29.1797 38.8633 29.7117 40.1603 30.7757 41.2243C31.8397 42.2883 33.1367 42.8203 34.6667 42.8203ZM34.6667 40.8207C33.682 40.8207 32.8547 40.4856 32.1847 39.8153C31.5144 39.1453 31.1793 38.318 31.1793 37.3333C31.1793 36.3487 31.5144 35.5213 32.1847 34.8513C32.8547 34.1811 33.682 33.846 34.6667 33.846C35.6513 33.846 36.4787 34.1811 37.1487 34.8513C37.8189 35.5213 38.154 36.3487 38.154 37.3333C38.154 38.318 37.8189 39.1453 37.1487 39.8153C36.4787 40.4856 35.6513 40.8207 34.6667 40.8207Z" fill="#565656"/>
</g>
</svg>
