<svg width="22" height="21" viewBox="0 0 22 21" fill="none" xmlns="http://www.w3.org/2000/svg">
<path d="M21.141 20.2834C21.0453 20.4329 20.8864 20.5178 20.6644 20.538C20.4421 20.5582 20.2427 20.48 20.0662 20.3035L17.7308 17.9678H6.33334C5.76575 17.9678 5.27984 17.7657 4.87559 17.3614C4.47134 16.9574 4.26921 16.4715 4.26921 15.9037V15.1859H16.9681C17.5479 15.1859 18.0443 14.9794 18.4573 14.5664C18.8703 14.1534 19.0768 13.6569 19.0768 13.0769V5.00002H19.7949C20.3625 5.00002 20.8484 5.20214 21.2527 5.60639C21.6569 6.01064 21.859 6.49656 21.859 7.06415V19.5475C21.859 19.7627 21.7872 19.9392 21.6435 20.0769C21.5 20.2145 21.3325 20.2834 21.141 20.2834ZM1.89096 12.754L3.54238 11.1026H14.6348C14.7394 11.1026 14.8253 11.0689 14.8926 11.0016C14.9599 10.9344 14.9935 10.8483 14.9935 10.7435V3.02573C14.9935 2.92092 14.9599 2.83488 14.8926 2.7676C14.8253 2.70033 14.7394 2.66669 14.6348 2.66669H2.25C2.14539 2.66669 2.05935 2.70033 1.99188 2.7676C1.9246 2.83488 1.89096 2.92092 1.89096 3.02573V12.754ZM1.19184 15.5044C0.920586 15.5044 0.677627 15.4057 0.462961 15.2084C0.248294 15.0108 0.140961 14.7503 0.140961 14.427V3.02573C0.140961 2.4457 0.34746 1.94919 0.76046 1.53619C1.17346 1.12319 1.66997 0.916687 2.25 0.916687H14.6348C15.2146 0.916687 15.711 1.12319 16.124 1.53619C16.537 1.94919 16.7435 2.4457 16.7435 3.02573V10.7435C16.7435 11.3235 16.537 11.8201 16.124 12.2331C15.711 12.6461 15.2146 12.8526 14.6348 12.8526H4.26921L1.93384 15.1882C1.82456 15.2973 1.7075 15.3773 1.58267 15.4283C1.45764 15.479 1.32736 15.5044 1.19184 15.5044Z" fill="#565656"/>
</svg>
