<svg width="20" height="20" viewBox="0 0 20 20" fill="none" xmlns="http://www.w3.org/2000/svg">
<mask id="mask0_1232_600" style="mask-type:alpha" maskUnits="userSpaceOnUse" x="0" y="0" width="20" height="20">
<rect width="20" height="20" fill="#D9D9D9"/>
</mask>
<g mask="url(#mask0_1232_600)">
<path d="M9.99992 13.9423C10.1906 13.9423 10.3505 13.8778 10.4795 13.7488C10.6085 13.6197 10.673 13.4599 10.673 13.2692C10.673 13.0785 10.6085 12.9186 10.4795 12.7896C10.3505 12.6607 10.1906 12.5963 9.99992 12.5963C9.80922 12.5963 9.64936 12.6607 9.52034 12.7896C9.39131 12.9186 9.32679 13.0785 9.32679 13.2692C9.32679 13.4599 9.39131 13.6197 9.52034 13.7488C9.64936 13.8778 9.80922 13.9423 9.99992 13.9423ZM10.0001 10.8975C10.1774 10.8975 10.3258 10.8376 10.4453 10.7177C10.5651 10.598 10.6249 10.4496 10.6249 10.2725V6.52251C10.6249 6.34543 10.565 6.19696 10.4451 6.07709C10.3253 5.95737 10.1768 5.89751 9.99971 5.89751C9.82249 5.89751 9.67409 5.95737 9.5545 6.07709C9.43478 6.19696 9.37492 6.34543 9.37492 6.52251V10.2725C9.37492 10.4496 9.43485 10.598 9.55471 10.7177C9.67457 10.8376 9.82304 10.8975 10.0001 10.8975ZM10.0014 17.9167C8.90638 17.9167 7.87714 17.7089 6.91367 17.2933C5.9502 16.8778 5.11214 16.3138 4.3995 15.6015C3.68686 14.8891 3.12263 14.0514 2.70679 13.0883C2.2911 12.1253 2.08325 11.0963 2.08325 10.0015C2.08325 8.90647 2.29103 7.87723 2.70659 6.91376C3.12214 5.95029 3.6861 5.11223 4.39846 4.39959C5.11082 3.68695 5.94853 3.12272 6.91159 2.70689C7.87464 2.29119 8.9036 2.08334 9.99846 2.08334C11.0935 2.08334 12.1227 2.29112 13.0862 2.70668C14.0496 3.12223 14.8877 3.68619 15.6003 4.39855C16.313 5.11091 16.8772 5.94862 17.293 6.91168C17.7087 7.87473 17.9166 8.90369 17.9166 9.99855C17.9166 11.0936 17.7088 12.1228 17.2933 13.0863C16.8777 14.0497 16.3137 14.8878 15.6014 15.6004C14.889 16.3131 14.0513 16.8773 13.0883 17.2931C12.1252 17.7088 11.0962 17.9167 10.0014 17.9167ZM9.99992 16.6667C11.861 16.6667 13.4374 16.0208 14.7291 14.7292C16.0208 13.4375 16.6666 11.8611 16.6666 10C16.6666 8.1389 16.0208 6.56251 14.7291 5.27084C13.4374 3.97918 11.861 3.33334 9.99992 3.33334C8.13881 3.33334 6.56242 3.97918 5.27075 5.27084C3.97909 6.56251 3.33325 8.1389 3.33325 10C3.33325 11.8611 3.97909 13.4375 5.27075 14.7292C6.56242 16.0208 8.13881 16.6667 9.99992 16.6667Z" fill="#FF4444"/>
</g>
</svg>
