<svg width="24" height="24" viewBox="0 0 24 24" fill="none" xmlns="http://www.w3.org/2000/svg">
<mask id="mask0_498_4444" style="mask-type:alpha" maskUnits="userSpaceOnUse" x="0" y="0" width="24" height="24">
<rect width="24" height="24" fill="#D9D9D9"/>
</mask>
<g mask="url(#mask0_498_4444)">
<path d="M4.25 16.4422C4.0375 16.4422 3.85942 16.3703 3.71575 16.2265C3.57192 16.0827 3.5 15.9045 3.5 15.692C3.5 15.4793 3.57192 15.3012 3.71575 15.1577C3.85942 15.0141 4.0375 14.9422 4.25 14.9422H15.875C16.0875 14.9422 16.2656 15.0142 16.4093 15.158C16.5531 15.3018 16.625 15.48 16.625 15.6925C16.625 15.9052 16.5531 16.0833 16.4093 16.227C16.2656 16.3705 16.0875 16.4422 15.875 16.4422H4.25ZM6.18275 12.75C5.97025 12.75 5.79208 12.6781 5.64825 12.5342C5.50458 12.3904 5.43275 12.2122 5.43275 11.9997C5.43275 11.7871 5.50458 11.609 5.64825 11.4655C5.79208 11.3218 5.97025 11.25 6.18275 11.25H17.8077C18.0202 11.25 18.1983 11.3219 18.342 11.4657C18.4858 11.6096 18.5577 11.7877 18.5577 12.0002C18.5577 12.2129 18.4858 12.391 18.342 12.5345C18.1983 12.6782 18.0202 12.75 17.8077 12.75H6.18275ZM8.125 9.05774C7.9125 9.05774 7.73442 8.98582 7.59075 8.84199C7.44692 8.69816 7.375 8.51999 7.375 8.30749C7.375 8.09482 7.44692 7.91666 7.59075 7.77299C7.73442 7.62949 7.9125 7.55774 8.125 7.55774H19.75C19.9625 7.55774 20.1406 7.62966 20.2843 7.77349C20.4281 7.91732 20.5 8.09549 20.5 8.30799C20.5 8.52066 20.4281 8.69874 20.2843 8.84224C20.1406 8.98591 19.9625 9.05774 19.75 9.05774H8.125Z" fill="#D3D3D3"/>
</g>
</svg>
