<svg width="24" height="24" viewBox="0 0 24 24" fill="none" xmlns="http://www.w3.org/2000/svg">
<mask id="mask0_498_4437" style="mask-type:alpha" maskUnits="userSpaceOnUse" x="0" y="0" width="24" height="24">
<rect width="24" height="24" fill="#D9D9D9"/>
</mask>
<g mask="url(#mask0_498_4437)">
<path d="M12 21.5C9.90767 21.5 8.13458 20.7731 6.68075 19.3193C5.22692 17.8654 4.5 16.0923 4.5 14C4.5 12.309 4.98783 10.6658 5.9635 9.07025C6.93917 7.47475 8.277 6.07184 9.977 4.8615C10.2987 4.62434 10.6362 4.60067 10.9895 4.7905C11.3427 4.98017 11.5192 5.27117 11.5192 5.6635V6.5115C11.5192 7.123 11.7679 7.65734 12.2652 8.1145C12.7627 8.5715 13.3493 8.8 14.025 8.8C14.3212 8.8 14.608 8.74234 14.8855 8.627C15.1632 8.51167 15.418 8.34692 15.65 8.13275C15.7833 7.99809 15.9413 7.91959 16.124 7.89725C16.3067 7.87475 16.4768 7.92375 16.6345 8.04425C17.5307 8.74942 18.2323 9.626 18.7395 10.674C19.2465 11.7222 19.5 12.8308 19.5 14C19.5 16.0923 18.7731 17.8654 17.3193 19.3193C15.8654 20.7731 14.0923 21.5 12 21.5ZM6 14C6 15.0077 6.24075 15.9455 6.72225 16.8135C7.20358 17.6815 7.86542 18.3815 8.70775 18.9135C8.63342 18.7725 8.58017 18.6318 8.548 18.4913C8.516 18.3509 8.5 18.2038 8.5 18.05C8.5 17.5872 8.58883 17.1513 8.7665 16.7423C8.944 16.3333 9.19875 15.9628 9.53075 15.6308L12 13.202L14.4788 15.6308C14.8109 15.9628 15.0642 16.3333 15.2385 16.7423C15.4128 17.1513 15.5 17.5872 15.5 18.05C15.5 18.2038 15.484 18.3509 15.452 18.4913C15.4198 18.6318 15.3666 18.7725 15.2923 18.9135C16.1346 18.3815 16.7964 17.6815 17.2778 16.8135C17.7592 15.9455 18 15.0077 18 14C18 13.1667 17.8458 12.3792 17.5375 11.6375C17.2292 10.8958 16.7833 10.2333 16.2 9.65C15.8667 9.86667 15.5167 10.0292 15.15 10.1375C14.7833 10.2458 14.4083 10.3 14.025 10.3C12.9853 10.3 12.0863 9.95834 11.328 9.275C10.5697 8.59167 10.1353 7.74359 10.025 6.73075C8.725 7.82442 7.72917 8.99684 7.0375 10.248C6.34583 11.4993 6 12.75 6 14ZM12 15.3L10.575 16.7C10.3917 16.8833 10.25 17.0917 10.15 17.325C10.05 17.5583 10 17.8 10 18.05C10 18.5833 10.1958 19.0417 10.5875 19.425C10.9792 19.8083 11.45 20 12 20C12.55 20 13.0208 19.8083 13.4125 19.425C13.8042 19.0417 14 18.5833 14 18.05C14 17.7833 13.95 17.5375 13.85 17.3125C13.75 17.0875 13.6083 16.8833 13.425 16.7L12 15.3Z" fill="white"/>
</g>
</svg>
