<svg width="18" height="20" viewBox="0 0 18 20" fill="none" xmlns="http://www.w3.org/2000/svg">
<path d="M5.7615 17.9999H12.2193C12.3026 17.9999 12.3731 17.9759 12.4307 17.9279C12.4884 17.8798 12.5301 17.8204 12.5557 17.7499L13.6328 13.4519H4.348L5.425 17.7499C5.45067 17.8204 5.49233 17.8798 5.55 17.9279C5.60767 17.9759 5.67817 17.9999 5.7615 17.9999ZM5.7615 19.4999C5.33333 19.4999 4.95708 19.3711 4.63275 19.1134C4.30842 18.8558 4.09108 18.5211 3.98075 18.1094L2.80775 13.4519H15.173L14 18.1094C13.8897 18.5146 13.6723 18.8476 13.348 19.1084C13.0237 19.3694 12.6474 19.4999 12.2193 19.4999H5.7615ZM2.34625 11.9519H15.6538C15.7564 11.9519 15.8398 11.9199 15.9038 11.8557C15.9679 11.7915 16 11.7114 16 11.6152V9.75945H2V11.6152C2 11.7114 2.03367 11.7915 2.101 11.8557C2.16833 11.9199 2.25008 11.9519 2.34625 11.9519ZM8.9905 6.0577C8.9905 4.68587 9.46517 3.50445 10.4145 2.51345C11.3638 1.52245 12.5295 0.897448 13.9115 0.638448C13.9885 0.621782 14.0587 0.626948 14.122 0.653948C14.1855 0.680781 14.2474 0.719199 14.3077 0.769199C14.3679 0.819199 14.4089 0.878533 14.4307 0.947199C14.4526 1.0157 14.4552 1.08845 14.4385 1.16545C14.2102 2.37945 13.6727 3.4307 12.826 4.3192C11.9792 5.2077 10.9506 5.76345 9.74025 5.98645V8.2597H16.596C16.8538 8.2597 17.0689 8.34587 17.2413 8.5182C17.4138 8.6907 17.5 8.90578 17.5 9.16345V11.6152C17.5 12.1204 17.3186 12.5528 16.9557 12.9124C16.5929 13.2721 16.1589 13.4519 15.6538 13.4519H2.34625C1.84108 13.4519 1.40708 13.2721 1.04425 12.9124C0.681417 12.5528 0.5 12.1204 0.5 11.6152V9.16345C0.5 8.90578 0.58625 8.6907 0.75875 8.5182C0.931084 8.34587 1.14617 8.2597 1.404 8.2597H8.2405V5.98645C7.03017 5.76345 6.00158 5.2077 5.15475 4.3192C4.30808 3.4307 3.77058 2.37945 3.54225 1.16545C3.52558 1.08845 3.52817 1.0157 3.55 0.947199C3.57183 0.878533 3.61283 0.819199 3.673 0.769199C3.73333 0.719199 3.79525 0.680781 3.85875 0.653948C3.92225 0.626948 3.99242 0.621782 4.06925 0.638448C5.45125 0.897448 6.61692 1.52245 7.56625 2.51345C8.51575 3.50445 8.9905 4.68587 8.9905 6.0577Z" fill="#8F8F8F"/>
</svg>
