<svg width="24" height="23" viewBox="0 0 24 23" fill="none" xmlns="http://www.w3.org/2000/svg">
<path d="M20.1667 6.91667C20.4972 6.91667 20.7743 6.80486 20.9979 6.58125C21.2215 6.35764 21.3333 6.08056 21.3333 5.75C21.3333 5.41944 21.2215 5.14236 20.9979 4.91875C20.7743 4.69514 20.4972 4.58333 20.1667 4.58333C19.8361 4.58333 19.559 4.69514 19.3354 4.91875C19.1118 5.14236 19 5.41944 19 5.75C19 6.08056 19.1118 6.35764 19.3354 6.58125C19.559 6.80486 19.8361 6.91667 20.1667 6.91667ZM20.1658 8.66667C19.3392 8.66667 18.6466 8.38745 18.088 7.829C17.5293 7.27036 17.25 6.57824 17.25 5.75263C17.25 4.94315 17.5293 4.25424 18.088 3.68587C18.6464 3.11751 19.3384 2.83333 20.164 2.83333C20.9735 2.83333 21.6624 3.11703 22.2308 3.68442C22.7992 4.25161 23.0833 4.94043 23.0833 5.75088C23.0833 6.57746 22.7996 7.27007 22.2323 7.82871C21.6651 8.38735 20.9762 8.66667 20.1658 8.66667ZM12 5.75C12.4861 5.75 12.8993 5.58472 13.2396 5.25417C13.5799 4.92361 13.75 4.50556 13.75 4C13.75 3.51389 13.5799 3.10069 13.2396 2.76042C12.8993 2.42014 12.4861 2.25 12 2.25C11.4944 2.25 11.0764 2.42014 10.7458 2.76042C10.4153 3.10069 10.25 3.51389 10.25 4C10.25 4.50556 10.4153 4.92361 10.7458 5.25417C11.0764 5.58472 11.4944 5.75 12 5.75ZM12.0006 7.5C11.0175 7.5 10.1883 7.16283 9.51296 6.4885C8.83766 5.81417 8.5 4.98593 8.5 4.00379C8.5 3.03799 8.83717 2.21257 9.51151 1.52754C10.1858 0.842513 11.0142 0.5 11.9965 0.5C12.9621 0.5 13.7874 0.841639 14.4725 1.52492C15.1575 2.208 15.5 3.03283 15.5 3.99942C15.5 4.98253 15.1584 5.81174 14.4751 6.48704C13.792 7.16235 12.9672 7.5 12.0006 7.5ZM7.01921 12.6042C7.01921 13.2474 7.33781 13.9729 7.97501 14.7806C8.6122 15.5881 9.8828 16.8565 11.7868 18.5857L12 18.7764L12.2357 18.5518C14.0634 16.8991 15.3112 15.6598 15.9789 14.834C16.6468 14.0082 16.9808 13.2649 16.9808 12.6042C16.9808 12.0694 16.8047 11.616 16.4526 11.2438C16.1006 10.8719 15.6664 10.6859 15.15 10.6859C14.8321 10.6859 14.5313 10.7554 14.2476 10.8944C13.9637 11.0336 13.7253 11.2252 13.5324 11.469L12.2333 13.0192H11.7489L10.4384 11.469C10.2455 11.2252 10.0089 11.0336 9.72851 10.8944C9.44792 10.7554 9.15509 10.6859 8.85001 10.6859C8.31023 10.6859 7.8701 10.8719 7.52963 11.2438C7.18935 11.616 7.01921 12.0694 7.01921 12.6042ZM5.26921 12.6042C5.26921 11.6485 5.60619 10.7982 6.28013 10.0533C6.95388 9.30833 7.81051 8.93587 8.85001 8.93587C9.43781 8.93587 9.99383 9.07199 10.518 9.34421C11.0423 9.61643 11.4876 9.97839 11.8542 10.4301L12 10.5984L12.1458 10.419C12.5198 9.97469 12.964 9.61643 13.4785 9.34421C13.993 9.07199 14.5501 8.93587 15.15 8.93587C16.1821 8.93587 17.0369 9.31174 17.7143 10.0635C18.392 10.8154 18.7308 11.6623 18.7308 12.6042C18.7308 13.5748 18.3658 14.5478 17.6359 15.5232C16.9059 16.4983 15.4476 17.9858 13.2609 19.9857L12 21.141L10.7616 20.0192C8.521 17.9702 7.04546 16.4666 6.33496 15.5086C5.62446 14.5506 5.26921 13.5824 5.26921 12.6042ZM3.83334 6.91667C4.16389 6.91667 4.44098 6.80486 4.66459 6.58125C4.8882 6.35764 5 6.08056 5 5.75C5 5.41944 4.8882 5.14236 4.66459 4.91875C4.44098 4.69514 4.16389 4.58333 3.83334 4.58333C3.50278 4.58333 3.2257 4.69514 3.00209 4.91875C2.77848 5.14236 2.66667 5.41944 2.66667 5.75C2.66667 6.08056 2.77848 6.35764 3.00209 6.58125C3.2257 6.80486 3.50278 6.91667 3.83334 6.91667ZM12.0875 22.0833V20.3333H21.3333V12.5257C21.3333 12.4285 21.2979 12.3443 21.2269 12.2731C21.1557 12.2022 21.0715 12.1667 20.9743 12.1667H17.9366V10.4167H20.9743C21.5543 10.4167 22.0508 10.6232 22.4638 11.0362C22.8768 11.4492 23.0833 11.9457 23.0833 12.5257V21.0281C23.0833 21.3293 22.9822 21.5804 22.78 21.7815C22.578 21.9827 22.3275 22.0833 22.0287 22.0833H12.0875ZM2.66667 20.3333H12.0875V22.0833H1.97134C1.67248 22.0833 1.42203 21.9822 1.22001 21.78C1.01778 21.578 0.916672 21.3275 0.916672 21.0287V12.5295C0.916672 11.9452 1.1188 11.4469 1.52305 11.0347C1.9273 10.6227 2.42819 10.4167 3.02571 10.4167H6.06342V12.1667H3.02571C2.92091 12.1667 2.83487 12.2022 2.76759 12.2731C2.70031 12.3443 2.66667 12.4285 2.66667 12.5257V20.3333ZM3.83246 8.66667C3.00588 8.66667 2.31327 8.38745 1.75463 7.829C1.19599 7.27036 0.916672 6.57824 0.916672 5.75263C0.916672 4.94315 1.19599 4.25424 1.75463 3.68587C2.31307 3.11751 3.0051 2.83333 3.83071 2.83333C4.64019 2.83333 5.3291 3.11703 5.89746 3.68442C6.46582 4.25161 6.75 4.94043 6.75 5.75088C6.75 6.57746 6.46631 7.27007 5.89892 7.82871C5.33173 8.38735 4.64291 8.66667 3.83246 8.66667Z" fill="currentColor"/>
</svg>
