<svg width="24" height="23" viewBox="0 0 24 23" fill="none" xmlns="http://www.w3.org/2000/svg">
<path d="M3.25 20.8076V12.1136L1.76921 13.2648C1.56426 13.4144 1.34736 13.4734 1.1185 13.4419C0.889831 13.4106 0.700637 13.2925 0.550914 13.0875C0.401387 12.8826 0.340428 12.6657 0.368039 12.4368C0.395845 12.2079 0.506192 12.0187 0.699081 11.8692L3.25 9.90835V7.43589C3.25 7.18758 3.3338 6.97972 3.50141 6.8123C3.66883 6.64469 3.87669 6.56089 4.125 6.56089C4.3733 6.56089 4.58116 6.64469 4.74858 6.8123C4.91619 6.97972 5 7.18758 5 7.43589V8.56668L10.7167 4.20743C11.1071 3.91421 11.5367 3.7676 12.0055 3.7676C12.4745 3.7676 12.9005 3.91421 13.2833 4.20743L23.3009 11.8692C23.4938 12.0187 23.6042 12.2079 23.632 12.4368C23.6596 12.6657 23.5986 12.8826 23.4491 13.0875C23.2994 13.2804 23.1102 13.3926 22.8815 13.4241C22.6526 13.4554 22.4417 13.3963 22.2486 13.2468L20.75 12.1136V20.8076C20.75 21.3894 20.544 21.8864 20.132 22.2986C19.7197 22.7107 19.2227 22.9167 18.641 22.9167H5.35904C4.77726 22.9167 4.28026 22.7107 3.86804 22.2986C3.45601 21.8864 3.25 21.3894 3.25 20.8076ZM5.35904 21.1667H10.609V17.4424C10.609 17.0519 10.7432 16.7225 11.0115 16.4539C11.2801 16.1854 11.6096 16.0511 12 16.0511C12.3904 16.0511 12.7199 16.1854 12.9885 16.4539C13.2568 16.7225 13.391 17.0519 13.391 17.4424V21.1667H18.641C18.7458 21.1667 18.8318 21.133 18.8991 21.0658C18.9664 20.9985 19 20.9124 19 20.8076V10.7833L12.2132 5.61414C12.1533 5.56183 12.0822 5.53568 12 5.53568C11.9177 5.53568 11.8467 5.56183 11.7868 5.61414L5 10.7833V20.8076C5 20.9124 5.03364 20.9985 5.10091 21.0658C5.16819 21.133 5.25423 21.1667 5.35904 21.1667ZM5.35904 21.1667H19H5H5.35904ZM4.32916 5.28222C4.0165 5.28222 3.77043 5.1536 3.59096 4.89635C3.41148 4.6391 3.39136 4.37203 3.53058 4.09514C3.76391 3.53125 4.13112 3.08335 4.63221 2.75143C5.13309 2.41932 5.6895 2.25326 6.30141 2.25326C6.56761 2.25326 6.8166 2.18112 7.04837 2.03685C7.28015 1.89237 7.43726 1.69676 7.51971 1.45001C7.58698 1.30496 7.68644 1.18946 7.81808 1.10351C7.94972 1.01737 8.10002 0.974304 8.269 0.974304C8.58905 0.974304 8.83765 1.10487 9.01479 1.36601C9.19212 1.62696 9.21118 1.89947 9.07196 2.18355C8.83123 2.74005 8.46218 3.18242 7.96479 3.51064C7.46759 3.83905 6.91314 4.00326 6.30141 4.00326C6.03503 4.00326 5.78594 4.06685 5.55416 4.19401C5.32239 4.32118 5.16537 4.51407 5.08312 4.77268C5.00826 4.92532 4.90803 5.0484 4.78241 5.14193C4.6568 5.23546 4.50572 5.28222 4.32916 5.28222Z" fill="#565656"/>
</svg>
