<svg width="24" height="24" viewBox="0 0 24 24" fill="none" xmlns="http://www.w3.org/2000/svg">
<mask id="mask0_3312_1671" style="mask-type:alpha" maskUnits="userSpaceOnUse" x="0" y="0" width="24" height="24">
<rect width="24" height="24" fill="#D9D9D9"/>
</mask>
<g mask="url(#mask0_3312_1671)">
<path d="M5 12C5 13.8051 5.59583 15.3676 6.7875 16.6875C7.97917 18.0073 9.46925 18.7646 11.2578 18.9595C11.4603 18.9865 11.6298 19.0743 11.7663 19.223C11.9029 19.3718 11.9713 19.5475 11.9713 19.75C11.9713 19.9628 11.8824 20.1385 11.7048 20.277C11.5273 20.4153 11.3238 20.471 11.0943 20.4442C8.92758 20.2185 7.12025 19.3031 5.67225 17.698C4.22408 16.0928 3.5 14.1935 3.5 12C3.5 9.82946 4.21508 7.94005 5.64525 6.33172C7.07542 4.72338 8.87058 3.79805 11.0308 3.55571C11.2769 3.52888 11.4936 3.58046 11.6808 3.71046C11.8679 3.84063 11.9615 4.02047 11.9615 4.24997C11.9615 4.45247 11.8948 4.62813 11.7615 4.77697C11.6282 4.92563 11.4603 5.01347 11.2578 5.04047C9.46925 5.2353 7.97917 5.99263 6.7875 7.31247C5.59583 8.6323 5 10.1948 5 12ZM17.7808 12.75H10C9.78717 12.75 9.609 12.6781 9.4655 12.5345C9.32183 12.391 9.25 12.2128 9.25 12C9.25 11.7871 9.32183 11.609 9.4655 11.4655C9.609 11.3218 9.78717 11.25 10 11.25H17.7713L15.473 8.94222C15.3243 8.79355 15.25 8.61697 15.25 8.41247C15.25 8.20797 15.3243 8.03138 15.473 7.88272C15.6218 7.73405 15.7975 7.65972 16 7.65972C16.2025 7.65972 16.3782 7.73405 16.527 7.88272L20.0115 11.3672C20.1923 11.548 20.2828 11.759 20.2828 12C20.2828 12.241 20.1923 12.4519 20.0115 12.6327L16.527 16.1172C16.3782 16.2659 16.2025 16.3377 16 16.3327C15.7975 16.3275 15.6218 16.2506 15.473 16.102C15.3243 15.9531 15.25 15.7775 15.25 15.575C15.25 15.3725 15.3243 15.1968 15.473 15.048L17.7808 12.75Z" fill="#FF4444"/>
</g>
</svg>
