<svg width="20" height="20" viewBox="0 0 20 20" fill="none" xmlns="http://www.w3.org/2000/svg">
<path d="M1.83334 17.0493C2.88334 16.0187 4.10348 15.2069 5.49376 14.6139C6.88404 14.0208 8.38612 13.7243 10 13.7243C11.6139 13.7243 13.116 14.0208 14.5063 14.6139C15.8965 15.2069 17.1167 16.0187 18.1667 17.0493V2.19235C18.1667 2.10252 18.1292 2.02027 18.0544 1.9456C17.9797 1.87074 17.8975 1.83331 17.8076 1.83331H2.19239C2.10255 1.83331 2.0203 1.87074 1.94564 1.9456C1.87077 2.02027 1.83334 2.10252 1.83334 2.19235V17.0493ZM10 11.2116C11.0529 11.2116 11.9482 10.8429 12.6857 10.1056C13.423 9.36804 13.7917 8.47281 13.7917 7.4199C13.7917 6.36698 13.423 5.47176 12.6857 4.73423C11.9482 3.9969 11.0529 3.62823 10 3.62823C8.94709 3.62823 8.05187 3.9969 7.31434 4.73423C6.57701 5.47176 6.20834 6.36698 6.20834 7.4199C6.20834 8.47281 6.57701 9.36804 7.31434 10.1056C8.05187 10.8429 8.94709 11.2116 10 11.2116ZM2.19239 19.9166C1.60302 19.9166 1.10418 19.7125 0.695844 19.3041C0.28751 18.8958 0.0833435 18.397 0.0833435 17.8076V2.19235C0.0833435 1.60299 0.28751 1.10415 0.695844 0.695813C1.10418 0.28748 1.60302 0.083313 2.19239 0.083313H17.8076C18.397 0.083313 18.8958 0.28748 19.3042 0.695813C19.7125 1.10415 19.9167 1.60299 19.9167 2.19235V17.8076C19.9167 18.397 19.7125 18.8958 19.3042 19.3041C18.8958 19.7125 18.397 19.9166 17.8076 19.9166H2.19239ZM3.20651 18.1666H16.7935C15.8034 17.2588 14.7239 16.5831 13.5551 16.1396C12.3861 15.696 11.2011 15.4743 10 15.4743C8.8139 15.4743 7.62662 15.696 6.43818 16.1396C5.24993 16.5831 4.17271 17.2588 3.20651 18.1666ZM10 9.46157C9.43904 9.46157 8.95857 9.26148 8.55859 8.86131C8.15843 8.46134 7.95834 7.98087 7.95834 7.4199C7.95834 6.85892 8.15843 6.37845 8.55859 5.97848C8.95857 5.57831 9.43904 5.37823 10 5.37823C10.561 5.37823 11.0415 5.57831 11.4414 5.97848C11.8416 6.37845 12.0417 6.85892 12.0417 7.4199C12.0417 7.98087 11.8416 8.46134 11.4414 8.86131C11.0415 9.26148 10.561 9.46157 10 9.46157Z" fill="#565656"/>
</svg>
