<svg width="28" height="28" viewBox="0 0 28 28" fill="none" xmlns="http://www.w3.org/2000/svg">
<mask id="mask0_498_4304" style="mask-type:alpha" maskUnits="userSpaceOnUse" x="0" y="0" width="28" height="28">
<rect width="28" height="28" fill="#D9D9D9"/>
</mask>
<g mask="url(#mask0_498_4304)">
<path d="M11.1058 18.2178C9.11349 18.2178 7.4263 17.5268 6.04419 16.1449C4.66227 14.7628 3.97131 13.0756 3.97131 11.0833C3.97131 9.09106 4.66227 7.40387 6.04419 6.02176C7.4263 4.63984 9.11349 3.94888 11.1058 3.94888C13.098 3.94888 14.7852 4.63984 16.1674 6.02176C17.5493 7.40387 18.2402 9.09106 18.2402 11.0833C18.2402 11.9165 18.1004 12.7123 17.8208 13.4706C17.541 14.229 17.1678 14.8885 16.7011 15.4493L23.4141 22.1623C23.5757 22.3237 23.6583 22.5267 23.662 22.7713C23.6657 23.0159 23.5831 23.2227 23.4141 23.3917C23.2451 23.5606 23.0402 23.6451 22.7993 23.6451C22.5585 23.6451 22.3537 23.5606 22.1847 23.3917L15.4717 16.6787C14.8884 17.1603 14.2176 17.5372 13.4592 17.8095C12.7009 18.0817 11.9164 18.2178 11.1058 18.2178ZM11.1058 16.4681C12.609 16.4681 13.8822 15.9464 14.9254 14.903C15.9688 13.8598 16.4905 12.5866 16.4905 11.0833C16.4905 9.58009 15.9688 8.30687 14.9254 7.26367C13.8822 6.22028 12.609 5.69859 11.1058 5.69859C9.60252 5.69859 8.3293 6.22028 7.2861 7.26367C6.24272 8.30687 5.72102 9.58009 5.72102 11.0833C5.72102 12.5866 6.24272 13.8598 7.2861 14.903C8.3293 15.9464 9.60252 16.4681 11.1058 16.4681Z" fill="#FFBB02"/>
</g>
</svg>
