<svg width="42" height="42" viewBox="0 0 42 42" fill="none" xmlns="http://www.w3.org/2000/svg">
<rect width="42" height="42" rx="21" fill="#FEC016"/>
<mask id="mask0_924_608" style="mask-type:alpha" maskUnits="userSpaceOnUse" x="11" y="11" width="20" height="20">
<rect x="11" y="11" width="20" height="20" fill="#D9D9D9"/>
</mask>
<g mask="url(#mask0_924_608)">
<path d="M26.6023 21.6988L14.9711 26.6026C14.72 26.703 14.4814 26.6814 14.2555 26.5378C14.0295 26.394 13.9165 26.1854 13.9165 25.9119V16.0882C13.9165 15.8147 14.0295 15.6061 14.2555 15.4623C14.4814 15.3187 14.72 15.2971 14.9711 15.3976L26.6023 20.3013C26.9122 20.4381 27.0671 20.671 27.0671 21.0001C27.0671 21.3291 26.9122 21.562 26.6023 21.6988ZM15.1665 25.1667L25.0415 21.0001L15.1665 16.8334V19.9103L19.6857 21.0001L15.1665 22.0898V25.1667Z" fill="#2F2F2F"/>
</g>
</svg>
