<svg width="40" height="40" viewBox="0 0 40 40" fill="none" xmlns="http://www.w3.org/2000/svg">
<rect width="40" height="40" rx="20" fill="#1D1D1D"/>
<mask id="mask0_924_641" style="mask-type:alpha" maskUnits="userSpaceOnUse" x="8" y="8" width="24" height="24">
<rect x="8" y="8" width="24" height="24" fill="#D9D9D9"/>
</mask>
<g mask="url(#mask0_924_641)">
<path d="M12.25 24.4422C12.0375 24.4422 11.8594 24.3703 11.7158 24.2265C11.5719 24.0827 11.5 23.9045 11.5 23.692C11.5 23.4793 11.5719 23.3012 11.7158 23.1577C11.8594 23.0141 12.0375 22.9422 12.25 22.9422H23.875C24.0875 22.9422 24.2656 23.0142 24.4093 23.158C24.5531 23.3018 24.625 23.48 24.625 23.6925C24.625 23.9052 24.5531 24.0833 24.4093 24.227C24.2656 24.3705 24.0875 24.4422 23.875 24.4422H12.25ZM14.1827 20.75C13.9702 20.75 13.7921 20.6781 13.6482 20.5342C13.5046 20.3904 13.4327 20.2122 13.4327 19.9997C13.4327 19.7871 13.5046 19.609 13.6482 19.4655C13.7921 19.3218 13.9702 19.25 14.1827 19.25H25.8077C26.0202 19.25 26.1983 19.3219 26.342 19.4657C26.4858 19.6096 26.5577 19.7877 26.5577 20.0002C26.5577 20.2129 26.4858 20.391 26.342 20.5345C26.1983 20.6782 26.0202 20.75 25.8077 20.75H14.1827ZM16.125 17.0577C15.9125 17.0577 15.7344 16.9858 15.5908 16.842C15.4469 16.6982 15.375 16.52 15.375 16.3075C15.375 16.0948 15.4469 15.9167 15.5908 15.773C15.7344 15.6295 15.9125 15.5577 16.125 15.5577H27.75C27.9625 15.5577 28.1406 15.6297 28.2843 15.7735C28.4281 15.9173 28.5 16.0955 28.5 16.308C28.5 16.5207 28.4281 16.6987 28.2843 16.8422C28.1406 16.9859 27.9625 17.0577 27.75 17.0577H16.125Z" fill="#8F8F8F"/>
</g>
</svg>
