<svg width="20" height="14" viewBox="0 0 20 14" fill="none" xmlns="http://www.w3.org/2000/svg">
<path d="M3.36345 7.74022H18.7595C18.972 7.74022 19.1501 7.66839 19.294 7.52472C19.4376 7.38089 19.5095 7.20264 19.5095 6.98997C19.5095 6.77747 19.4376 6.59939 19.294 6.45572C19.1501 6.31222 18.972 6.24047 18.7595 6.24047H3.3537L7.69045 1.88847C7.82662 1.75164 7.89787 1.58056 7.9042 1.37522C7.91037 1.16989 7.83912 0.992308 7.69045 0.842474C7.55412 0.705141 7.38062 0.636475 7.16995 0.636475C6.95912 0.636475 6.78454 0.705725 6.6462 0.844225L1.1327 6.35772C1.03904 6.45122 0.973036 6.55039 0.934703 6.65522C0.896203 6.75989 0.876953 6.87206 0.876953 6.99172C0.876953 7.11139 0.896286 7.22506 0.934953 7.33272C0.973786 7.44039 1.0397 7.54039 1.1327 7.63272L6.6462 13.1462C6.78304 13.2846 6.95412 13.3537 7.15945 13.3537C7.36462 13.3537 7.54162 13.2846 7.69045 13.1462C7.84545 12.9974 7.92137 12.8191 7.9182 12.6115C7.91504 12.4038 7.83912 12.2256 7.69045 12.077L3.36345 7.74022Z" fill="currentColor"/>
</svg>
