<svg width="24" height="24" viewBox="0 0 24 24" fill="none" xmlns="http://www.w3.org/2000/svg">
<g id="west">
<mask id="mask0_671_1750" style="mask-type:alpha" maskUnits="userSpaceOnUse" x="0" y="0" width="24" height="24">
<rect id="Bounding box" width="24" height="24" fill="#D9D9D9"/>
</mask>
<g mask="url(#mask0_671_1750)">
<path id="west_2" d="M5.36345 12.7402H20.7595C20.972 12.7402 21.1501 12.6684 21.294 12.5247C21.4376 12.3809 21.5095 12.2027 21.5095 11.99C21.5095 11.7775 21.4376 11.5994 21.294 11.4557C21.1501 11.3122 20.972 11.2405 20.7595 11.2405H5.3537L9.69045 6.8885C9.82662 6.75166 9.89787 6.58058 9.9042 6.37525C9.91037 6.16991 9.83912 5.99233 9.69045 5.8425C9.55412 5.70516 9.38062 5.6365 9.16995 5.6365C8.95912 5.6365 8.78454 5.70575 8.6462 5.84425L3.1327 11.3577C3.03904 11.4512 2.97304 11.5504 2.9347 11.6552C2.8962 11.7599 2.87695 11.8721 2.87695 11.9917C2.87695 12.1114 2.89629 12.2251 2.93495 12.3327C2.97379 12.4404 3.0397 12.5404 3.1327 12.6327L8.6462 18.1462C8.78304 18.2846 8.95412 18.3537 9.15945 18.3537C9.36462 18.3537 9.54162 18.2846 9.69045 18.1462C9.84545 17.9974 9.92137 17.8192 9.9182 17.6115C9.91504 17.4038 9.83912 17.2257 9.69045 17.077L5.36345 12.7402Z" fill="#8F8F8F"/>
</g>
</g>
</svg>
