<svg width="23" height="24" viewBox="0 0 23 24" className={className} fill="none" xmlns="http://www.w3.org/2000/svg">
      <path d="M10.625 12.875V16.6667C10.625 16.9146 10.7089 17.1224 10.8767 17.29C11.0445 17.4578 11.2524 17.5417 11.5003 17.5417C11.7484 17.5417 11.9562 17.4578 12.1236 17.29C12.2912 17.1224 12.375 16.9146 12.375 16.6667V12.875H16.1667C16.4146 12.875 16.6224 12.7911 16.79 12.6233C16.9578 12.4555 17.0417 12.2476 17.0417 11.9997C17.0417 11.7516 16.9578 11.5439 16.79 11.3764C16.6224 11.2088 16.4146 11.125 16.1667 11.125H12.375V7.33335C12.375 7.08544 12.2911 6.87767 12.1233 6.71006C11.9555 6.54226 11.7476 6.45835 11.4997 6.45835C11.2516 6.45835 11.0438 6.54226 10.8764 6.71006C10.7088 6.87767 10.625 7.08544 10.625 7.33335V11.125H6.83334C6.58542 11.125 6.37766 11.2089 6.21005 11.3767C6.04224 11.5445 5.95834 11.7524 5.95834 12.0003C5.95834 12.2484 6.04224 12.4562 6.21005 12.6236C6.37766 12.7912 6.58542 12.875 6.83334 12.875H10.625ZM11.502 23.0834C9.96905 23.0834 8.52812 22.7925 7.17925 22.2107C5.83039 21.6289 4.65712 20.8394 3.65942 19.8421C2.66173 18.8448 1.8718 17.672 1.28963 16.3237C0.707658 14.9754 0.416672 13.5349 0.416672 12.0021C0.416672 10.4691 0.707561 9.02813 1.28934 7.67927C1.87112 6.33041 2.66066 5.15713 3.65796 4.15944C4.65527 3.16174 5.82806 2.37181 7.17634 1.78965C8.52462 1.20767 9.96516 0.916687 11.498 0.916687C13.031 0.916687 14.4719 1.20758 15.8208 1.78935C17.1696 2.37113 18.3429 3.16067 19.3406 4.15798C20.3383 5.15528 21.1282 6.32808 21.7104 7.67635C22.2924 9.02463 22.5833 10.4652 22.5833 11.998C22.5833 13.531 22.2924 14.9719 21.7107 16.3208C21.1289 17.6696 20.3394 18.8429 19.342 19.8406C18.3447 20.8383 17.1719 21.6282 15.8237 22.2104C14.4754 22.7924 13.0349 23.0834 11.502 23.0834ZM11.5 21.3334C14.1056 21.3334 16.3125 20.4292 18.1208 18.6209C19.9292 16.8125 20.8333 14.6056 20.8333 12C20.8333 9.39446 19.9292 7.18752 18.1208 5.37919C16.3125 3.57085 14.1056 2.66669 11.5 2.66669C8.89445 2.66669 6.68751 3.57085 4.87917 5.37919C3.07084 7.18752 2.16667 9.39446 2.16667 12C2.16667 14.6056 3.07084 16.8125 4.87917 18.6209C6.68751 20.4292 8.89445 21.3334 11.5 21.3334Z" fill={color}/>
    </svg>
