<svg width="24" height="25" viewBox="0 0 24 25" fill="none" xmlns="http://www.w3.org/2000/svg">
<path d="M0 24.612V21.112H23.3333V24.612H0ZM4.66667 15.7611H6.10925L15.7926 6.09554L15.059 5.35092L14.3322 4.63517L4.66667 14.3185V15.7611ZM2.91667 17.5111V13.5736L15.9947 0.513626C16.1637 0.344654 16.3555 0.216806 16.5702 0.130084C16.7846 0.0433618 17.0079 0 17.2398 0C17.472 0 17.6968 0.0433618 17.9142 0.130084C18.1316 0.216806 18.3308 0.350682 18.5118 0.53171L19.9141 1.95183C20.0952 2.12081 20.226 2.31438 20.3067 2.53254C20.3874 2.75051 20.4278 2.97588 20.4278 3.20863C20.4278 3.42679 20.3868 3.6437 20.305 3.85933C20.2231 4.07517 20.0928 4.27243 19.9141 4.45113L6.85417 17.5111H2.91667ZM15.7926 6.09554L15.059 5.35092L14.3322 4.63517L15.7926 6.09554Z" fill="currentColor"/>
</svg>
