<svg width="24" height="24" viewBox="0 0 24 24" fill="none" xmlns="http://www.w3.org/2000/svg">
<path d="M11.125 12.875V16.6667C11.125 16.9146 11.2089 17.1224 11.3767 17.29C11.5445 17.4578 11.7524 17.5417 12.0003 17.5417C12.2484 17.5417 12.4562 17.4578 12.6236 17.29C12.7912 17.1224 12.875 16.9146 12.875 16.6667V12.875H16.6667C16.9146 12.875 17.1224 12.7911 17.29 12.6233C17.4578 12.4555 17.5417 12.2476 17.5417 11.9997C17.5417 11.7516 17.4578 11.5439 17.29 11.3764C17.1224 11.2088 16.9146 11.125 16.6667 11.125H12.875V7.33335C12.875 7.08544 12.7911 6.87767 12.6233 6.71006C12.4555 6.54226 12.2476 6.45835 11.9997 6.45835C11.7516 6.45835 11.5438 6.54226 11.3764 6.71006C11.2088 6.87767 11.125 7.08544 11.125 7.33335V11.125H7.33334C7.08542 11.125 6.87766 11.2089 6.71005 11.3767C6.54224 11.5445 6.45834 11.7524 6.45834 12.0003C6.45834 12.2484 6.54224 12.4562 6.71005 12.6236C6.87766 12.7912 7.08542 12.875 7.33334 12.875H11.125ZM12.002 23.0834C10.469 23.0834 9.02812 22.7925 7.67925 22.2107C6.33039 21.6289 5.15712 20.8394 4.15942 19.8421C3.16173 18.8448 2.3718 17.672 1.78963 16.3237C1.20766 14.9754 0.916672 13.5349 0.916672 12.0021C0.916672 10.4691 1.20756 9.02813 1.78934 7.67927C2.37112 6.33041 3.16066 5.15713 4.15796 4.15944C5.15527 3.16174 6.32806 2.37181 7.67634 1.78965C9.02462 1.20767 10.4652 0.916687 11.998 0.916687C13.531 0.916687 14.9719 1.20758 16.3208 1.78935C17.6696 2.37113 18.8429 3.16067 19.8406 4.15798C20.8383 5.15528 21.6282 6.32808 22.2104 7.67635C22.7924 9.02463 23.0833 10.4652 23.0833 11.998C23.0833 13.531 22.7924 14.9719 22.2107 16.3208C21.6289 17.6696 20.8394 18.8429 19.842 19.8406C18.8447 20.8383 17.6719 21.6282 16.3237 22.2104C14.9754 22.7924 13.5349 23.0834 12.002 23.0834ZM12 21.3334C14.6056 21.3334 16.8125 20.4292 18.6208 18.6209C20.4292 16.8125 21.3333 14.6056 21.3333 12C21.3333 9.39446 20.4292 7.18752 18.6208 5.37919C16.8125 3.57085 14.6056 2.66669 12 2.66669C9.39445 2.66669 7.18751 3.57085 5.37917 5.37919C3.57084 7.18752 2.66667 9.39446 2.66667 12C2.66667 14.6056 3.57084 16.8125 5.37917 18.6209C7.18751 20.4292 9.39445 21.3334 12 21.3334Z" fill="#565656"/>
</svg>
