<svg width="28" height="28" viewBox="0 0 28 28" fill="none" xmlns="http://www.w3.org/2000/svg">
<mask id="mask0_14_2743" style="mask-type:alpha" maskUnits="userSpaceOnUse" x="0" y="0" width="28" height="28">
<rect width="28" height="28" fill="#D9D9D9"/>
</mask>
<g mask="url(#mask0_14_2743)">
<path d="M2.3335 28V24.5H25.6668V28H2.3335ZM7.00016 19.1491H8.44275L18.1261 9.48354L17.3925 8.73892L16.6657 8.02317L7.00016 17.7065V19.1491ZM5.25016 20.8991V16.9616L18.3282 3.90163C18.4972 3.73265 18.689 3.60481 18.9037 3.51808C19.1181 3.43136 19.3414 3.388 19.5733 3.388C19.8055 3.388 20.0303 3.43136 20.2477 3.51808C20.4651 3.60481 20.6643 3.73868 20.8453 3.91971L22.2476 5.33984C22.4287 5.50881 22.5595 5.70238 22.6402 5.92054C22.7209 6.13852 22.7612 6.36388 22.7612 6.59663C22.7612 6.81479 22.7203 7.0317 22.6385 7.24733C22.5566 7.46317 22.4263 7.66043 22.2476 7.83913L9.18766 20.8991H5.25016ZM18.1261 9.48354L17.3925 8.73892L16.6657 8.02317L18.1261 9.48354Z" fill="#565656"/>
</g>
</svg>
