<svg width="168" height="168" viewBox="0 0 168 168" fill="none" xmlns="http://www.w3.org/2000/svg">
<g id="error">
<mask id="mask0_671_1815" style="mask-type:alpha" maskUnits="userSpaceOnUse" x="0" y="0" width="168" height="168">
<rect id="Bounding box" width="168" height="168" fill="#D9D9D9"/>
</mask>
<g mask="url(#mask0_671_1815)">
<path id="error_2" d="M84 117.115C85.6018 117.115 86.9447 116.573 88.0285 115.49C89.1123 114.406 89.6543 113.063 89.6543 111.461C89.6543 109.859 89.1123 108.516 88.0285 107.433C86.9447 106.35 85.6018 105.809 84 105.809C82.3982 105.809 81.0553 106.35 79.9715 107.433C78.8877 108.516 78.3458 109.859 78.3458 111.461C78.3458 113.063 78.8877 114.406 79.9715 115.49C81.0553 116.573 82.3982 117.115 84 117.115ZM84.0018 91.539C85.4904 91.539 86.737 91.0356 87.7415 90.0288C88.7472 89.0231 89.25 87.7765 89.25 86.289V54.789C89.25 53.3015 88.7466 52.0544 87.7398 51.0475C86.7329 50.0419 85.4857 49.539 83.9983 49.539C82.5096 49.539 81.263 50.0419 80.2585 51.0475C79.2528 52.0544 78.75 53.3015 78.75 54.789V86.289C78.75 87.7765 79.2534 89.0231 80.2603 90.0288C81.2671 91.0356 82.5143 91.539 84.0018 91.539ZM84.0123 150.5C74.8143 150.5 66.1687 148.755 58.0755 145.264C49.9823 141.773 42.9427 137.036 36.9565 131.052C30.9703 125.068 26.2307 118.032 22.7377 109.942C19.2459 101.852 17.5 93.2091 17.5 84.0123C17.5 74.8143 19.2453 66.1687 22.736 58.0755C26.2267 49.9823 30.9639 42.9427 36.9478 36.9565C42.9316 30.9703 49.9683 26.2308 58.058 22.7378C66.1477 19.2459 74.7909 17.5 83.9877 17.5C93.1858 17.5 101.831 19.2453 109.925 22.736C118.018 26.2267 125.057 30.9639 131.044 36.9478C137.03 42.9316 141.769 49.9683 145.262 58.058C148.754 66.1477 150.5 74.7909 150.5 83.9878C150.5 93.1858 148.755 101.831 145.264 109.925C141.773 118.018 137.036 125.057 131.052 131.044C125.068 137.03 118.032 141.769 109.942 145.262C101.852 148.754 93.2091 150.5 84.0123 150.5ZM84 140C99.6333 140 112.875 134.575 123.725 123.725C134.575 112.875 140 99.6333 140 84C140 68.3667 134.575 55.125 123.725 44.275C112.875 33.425 99.6333 28 84 28C68.3667 28 55.125 33.425 44.275 44.275C33.425 55.125 28 68.3667 28 84C28 99.6333 33.425 112.875 44.275 123.725C55.125 134.575 68.3667 140 84 140Z" fill="#FFBB02"/>
</g>
</g>
</svg>
